<svg width="1840" height="1418" viewBox="0 0 1840 1418" fill="none" xmlns="http://www.w3.org/2000/svg">
<g filter="url(#filter0_d_1_10)">
<path d="M691.157 1008.73C690.847 1013.07 690 1021 690 1024.5C690 1050.7 680.654 1075 680.654 1101.27C680.654 1116.97 675.521 1134.42 671.621 1149.58C667.564 1165.36 661.429 1184.7 651.245 1197.79C639.942 1212.32 631.13 1226.71 618.264 1240.33C605.956 1253.36 592.253 1264.45 579.613 1277.09C561.11 1295.59 540.592 1310.96 521.845 1329.19C508.163 1342.49 494.68 1355.24 477.521 1364.16C467.578 1369.33 458.267 1375.3 448.007 1380.13C435.738 1385.9 421.287 1386.98 408.305 1390.73C354.393 1406.34 294.66 1407.18 239.729 1395.36C188.865 1384.41 148.082 1356.03 107.808 1324.56C69.2718 1294.46 35.1204 1261.99 15.5902 1216.17C6.9892 1195.99 5.71716 1171.3 5.71716 1149.58C5.71716 1126.43 5.79854 1103.58 7.50271 1080.57C8.99591 1060.42 9.71959 1039.77 17.0606 1020.6C23.5306 1003.71 26.8814 984.121 36.3865 968.506L37.3075 966.992C48.7832 948.13 60.9564 928.122 77.5591 913.364C87.0306 904.945 102.114 890.43 115.266 888.786C137.617 885.992 163.449 887.555 183.432 898.134C209.668 912.024 218.97 946.428 225.864 973.022C235.764 1011.21 224.046 1053.13 233.532 1091.08C238.327 1110.26 237.405 1128.3 249.602 1145.38C255.05 1153.01 265.579 1162 274.599 1165.13C319.374 1180.62 383.261 1167.53 401.268 1118.91C417.359 1075.47 425.425 1031.8 425.425 985.101C425.425 952.61 427.316 919.925 427.316 887.631C427.316 862.09 427.529 836.183 429.627 810.747C432.643 774.175 436.429 736.32 436.769 699.623C437.134 660.195 440.55 621.016 440.55 581.462V464.351C440.55 404.523 438.66 344.963 438.66 285.167C438.66 244.322 440.55 203.449 440.55 162.804C440.55 139.979 443.245 92.7477 474.16 92.7477C488.076 92.7477 501.531 92.6362 515.228 94.7434C533.133 97.4979 548.747 106.219 565.433 112.599C598.995 125.431 627.46 156.381 645.573 186.857C660.775 212.436 670.944 240.379 674.562 270.042C687.88 379.255 695.778 489.011 695.778 599.213V800.244C695.778 843.345 694.256 886.354 693.888 929.434C693.661 955.883 693.042 982.343 691.157 1008.73Z" fill="white"/>
<path d="M1575.16 346.323C1530.03 375.205 1254.92 379.959 1203 382C1177.5 383.002 866.386 450 1113.21 607.742C1126.93 613.892 1141.63 616.211 1155.23 622.461C1179.35 633.541 1209.18 636.687 1234.99 641.08C1273.84 647.692 1313.96 652.366 1353.37 654.289C1443.77 658.699 1530.54 678.588 1613.15 715.303L1614.99 716.122C1697.31 752.702 1795.98 796.55 1826.64 888.534C1838.58 924.362 1833.81 965.072 1830.54 1001.88C1828.54 1024.4 1829.15 1048.41 1822.74 1070.32C1814.28 1099.23 1808.78 1129.25 1804 1159.01C1799.02 1189.94 1795.74 1230.29 1771.16 1253.11C1746.92 1275.62 1719.54 1292.48 1694.17 1313.62C1678.83 1326.41 1664.55 1340.4 1647.87 1351.61C1629.34 1364.09 1608.22 1370.72 1587.74 1378.91C1532.91 1400.85 1468.05 1408.23 1409.35 1408.23C1331.29 1408.23 1253.47 1406.58 1175.61 1400.93C1119.91 1396.89 1060.38 1395.09 1005.9 1382.19C979.886 1376.02 953.708 1370.09 928.658 1360.55C909.045 1353.08 889.83 1348.44 872.676 1335.76C859.905 1326.32 845.218 1318.35 836.444 1304.56C829.488 1293.63 818.788 1285.26 812.29 1274.62C799.281 1253.33 797.199 1216.86 803.107 1193.23C805.911 1182.01 805.495 1173.42 812.29 1163.54C819.654 1152.83 833.21 1145.28 842.735 1136.49C870.781 1110.6 909.474 1100.45 944.635 1088.94C969.822 1080.7 996.166 1076.85 1021.63 1069.69C1057.47 1059.61 1092.92 1048.18 1130.45 1048.18C1170.6 1048.18 1212.7 1044.06 1252.6 1039.62C1286.21 1035.89 1321.75 1038.3 1352.24 1020.88C1367.71 1012.04 1381.83 1001.96 1396.27 991.567C1404.06 985.958 1416.5 977.743 1420.67 968.922C1429.7 949.875 1422.8 927.025 1419.67 907.279C1414.39 874.022 1397.04 838.676 1376.01 812.801C1356.85 789.215 1320.04 783.982 1292.23 777.702C1255.76 769.467 1219.18 766.107 1182.4 760.089C1164.35 757.134 1144.3 756.578 1125.98 756.069L1125.79 756.064C1104.66 755.476 1083.76 750.491 1062.89 747.509C1031.25 742.989 1002.4 735.257 976.337 716.436C949.289 696.9 929.722 666.017 908.907 640.576C892.502 620.526 881.631 597.987 866.386 577.172C855.505 562.316 843.187 546.586 833.803 530.75C820.342 508.036 812.865 482.902 804.113 458.288C797.097 438.554 787.209 420.475 783.859 399.538C781.036 381.897 776.641 364.155 773.669 346.323C771.203 331.528 772.536 315.873 772.536 300.908C772.536 245.745 777.912 219.104 812.29 171.834C830.423 146.902 851.716 119.716 876.827 101.636C892.111 90.6316 905.122 76.8475 920.984 66.537C935.144 57.333 950.805 54.0746 966.651 49.0504C1030 -3.5 1650.64 -62 1650.64 171.834C1650.64 196 1637.2 234.045 1627.37 263.545C1616.6 295.846 1605.19 327.106 1575.16 346.323Z" fill="white"/>
<path d="M691.157 1008.73C690.847 1013.07 690 1021 690 1024.5C690 1050.7 680.654 1075 680.654 1101.27C680.654 1116.97 675.521 1134.42 671.621 1149.58C667.564 1165.36 661.429 1184.7 651.245 1197.79C639.942 1212.32 631.13 1226.71 618.264 1240.33C605.956 1253.36 592.253 1264.45 579.613 1277.09C561.11 1295.59 540.592 1310.96 521.845 1329.19C508.163 1342.49 494.68 1355.24 477.521 1364.16C467.578 1369.33 458.267 1375.3 448.007 1380.13C435.738 1385.9 421.287 1386.98 408.305 1390.73C354.393 1406.34 294.66 1407.18 239.729 1395.36C188.865 1384.41 148.082 1356.03 107.808 1324.56C69.2718 1294.46 35.1204 1261.99 15.5902 1216.17C6.9892 1195.99 5.71716 1171.3 5.71716 1149.58C5.71716 1126.43 5.79854 1103.58 7.50271 1080.57C8.99591 1060.42 9.71959 1039.77 17.0606 1020.6C23.5306 1003.71 26.8814 984.121 36.3865 968.506L37.3075 966.992C48.7832 948.13 60.9564 928.122 77.5591 913.364C87.0306 904.945 102.114 890.43 115.266 888.786C137.617 885.992 163.449 887.555 183.432 898.134C209.668 912.024 218.97 946.428 225.864 973.022C235.764 1011.21 224.046 1053.13 233.532 1091.08C238.327 1110.26 237.405 1128.3 249.602 1145.38C255.05 1153.01 265.579 1162 274.599 1165.13C319.374 1180.62 383.261 1167.53 401.268 1118.91C417.359 1075.47 425.425 1031.8 425.425 985.101C425.425 952.61 427.316 919.925 427.316 887.631C427.316 862.09 427.529 836.183 429.627 810.747C432.643 774.175 436.429 736.32 436.769 699.623C437.134 660.195 440.55 621.016 440.55 581.462V464.351C440.55 404.523 438.66 344.963 438.66 285.167C438.66 244.322 440.55 203.449 440.55 162.804C440.55 139.979 443.245 92.7477 474.16 92.7477C488.076 92.7477 501.531 92.6362 515.228 94.7434C533.133 97.4979 548.747 106.219 565.433 112.599C598.995 125.431 627.46 156.381 645.573 186.857C660.775 212.436 670.944 240.379 674.562 270.042C687.88 379.255 695.778 489.011 695.778 599.213V800.244C695.778 843.345 694.256 886.354 693.888 929.434C693.661 955.883 693.042 982.343 691.157 1008.73Z" stroke="white" stroke-width="3" stroke-linecap="round"/>
<path d="M1575.16 346.323C1530.03 375.205 1254.92 379.959 1203 382C1177.5 383.002 866.386 450 1113.21 607.742C1126.93 613.892 1141.63 616.211 1155.23 622.461C1179.35 633.541 1209.18 636.687 1234.99 641.08C1273.84 647.692 1313.96 652.366 1353.37 654.289C1443.77 658.699 1530.54 678.588 1613.15 715.303L1614.99 716.122C1697.31 752.702 1795.98 796.55 1826.64 888.534C1838.58 924.362 1833.81 965.072 1830.54 1001.88C1828.54 1024.4 1829.15 1048.41 1822.74 1070.32C1814.28 1099.23 1808.78 1129.25 1804 1159.01C1799.02 1189.94 1795.74 1230.29 1771.16 1253.11C1746.92 1275.62 1719.54 1292.48 1694.17 1313.62C1678.83 1326.41 1664.55 1340.4 1647.87 1351.61C1629.34 1364.09 1608.22 1370.72 1587.74 1378.91C1532.91 1400.85 1468.05 1408.23 1409.35 1408.23C1331.29 1408.23 1253.47 1406.58 1175.61 1400.93C1119.91 1396.89 1060.38 1395.09 1005.9 1382.19C979.886 1376.02 953.708 1370.09 928.658 1360.55C909.045 1353.08 889.83 1348.44 872.676 1335.76C859.905 1326.32 845.218 1318.35 836.444 1304.56C829.488 1293.63 818.788 1285.26 812.29 1274.62C799.281 1253.33 797.199 1216.86 803.107 1193.23C805.911 1182.01 805.495 1173.42 812.29 1163.54C819.654 1152.83 833.21 1145.28 842.735 1136.49C870.781 1110.6 909.474 1100.45 944.635 1088.94C969.822 1080.7 996.166 1076.85 1021.63 1069.69C1057.47 1059.61 1092.92 1048.18 1130.45 1048.18C1170.6 1048.18 1212.7 1044.06 1252.6 1039.62C1286.21 1035.89 1321.75 1038.3 1352.24 1020.88C1367.71 1012.04 1381.83 1001.96 1396.27 991.567C1404.06 985.958 1416.5 977.743 1420.67 968.922C1429.7 949.875 1422.8 927.025 1419.67 907.279C1414.39 874.022 1397.04 838.676 1376.01 812.801C1356.85 789.215 1320.04 783.982 1292.23 777.702C1255.76 769.467 1219.18 766.107 1182.4 760.089C1164.35 757.134 1144.3 756.578 1125.98 756.069L1125.79 756.064C1104.66 755.476 1083.76 750.491 1062.89 747.509C1031.25 742.989 1002.4 735.257 976.337 716.436C949.289 696.9 929.722 666.017 908.907 640.576C892.502 620.526 881.631 597.987 866.386 577.172C855.505 562.316 843.187 546.586 833.803 530.75C820.342 508.036 812.865 482.902 804.113 458.288C797.097 438.554 787.209 420.475 783.859 399.538C781.036 381.897 776.641 364.155 773.669 346.323C771.203 331.528 772.536 315.873 772.536 300.908C772.536 245.745 777.912 219.104 812.29 171.834C830.423 146.902 851.716 119.716 876.827 101.636C892.111 90.6316 905.122 76.8475 920.984 66.537C935.144 57.333 950.805 54.0746 966.651 49.0504C1030 -3.5 1650.64 -62 1650.64 171.834C1650.64 196 1637.2 234.045 1627.37 263.545C1616.6 295.846 1605.19 327.106 1575.16 346.323Z" stroke="white" stroke-width="3" stroke-linecap="round"/>
</g>
<defs>
<filter id="filter0_d_1_10" x="0.217163" y="0.137317" width="1839.58" height="1417.59" filterUnits="userSpaceOnUse" color-interpolation-filters="sRGB">
<feFlood flood-opacity="0" result="BackgroundImageFix"/>
<feColorMatrix in="SourceAlpha" type="matrix" values="0 0 0 0 0 0 0 0 0 0 0 0 0 0 0 0 0 0 127 0" result="hardAlpha"/>
<feOffset dy="4"/>
<feGaussianBlur stdDeviation="2"/>
<feComposite in2="hardAlpha" operator="out"/>
<feColorMatrix type="matrix" values="0 0 0 0 0 0 0 0 0 0 0 0 0 0 0 0 0 0 0.25 0"/>
<feBlend mode="normal" in2="BackgroundImageFix" result="effect1_dropShadow_1_10"/>
<feBlend mode="normal" in="SourceGraphic" in2="effect1_dropShadow_1_10" result="shape"/>
</filter>
</defs>
</svg>
